<?xml version="1.0" encoding="UTF-8"?>
<svg id="_Слой_2" data-name="Слой 2" xmlns="http://www.w3.org/2000/svg" xmlns:xlink="http://www.w3.org/1999/xlink" viewBox="0 0 2096.84 1356.44">
  <defs>
    <style>
      .cls-1 {
        fill: none;
      }

      .cls-2 {
        fill: url(#_Новый_узор);
      }

      .cls-3 {
        fill: #f5f5f5;
      }
    </style>
    <pattern id="_Новый_узор" data-name="Новый узор" x="0" y="0" width="288.76" height="284.44" patternTransform="translate(-1514.99 284.26)" patternUnits="userSpaceOnUse" viewBox="0 0 288.76 284.44">
      <g>
        <rect class="cls-1" width="288.76" height="284.44"/>
        <g>
          <path class="cls-3" d="M195.35,241.46c7.35-.62,13.66-4.86,17.14-10.93,1.86-3.22,2.92-6.93,2.92-10.91h-21.85v-.02s-.02,0-.02,0v-.08s-.03,0-.03,0v.08h-1.91c-.08,0-.16,0-.25.02h-17.61c-.08,0-.16-.02-.25-.02h-1.85v-.08h-.02v.08h-.08v.02h-2.04c-7.24.69-13.45,4.91-16.89,10.91-1.59,2.74-2.59,5.86-2.85,9.18v1.77"/>
          <path class="cls-3" d="M195.35,257.01c7.35.62,13.66,4.86,17.14,10.93,1.86,3.22,2.92,6.93,2.92,10.91h-21.85v.02s-.02,0-.02,0v.08h-.03v-.08h-1.91c-.08,0-.16,0-.25-.02h-17.61c-.08,0-.16.02-.25.02h-1.85v.08h-.02v-.08h-.08v-.02h-2.04c-7.24-.69-13.45-4.91-16.89-10.91-1.59-2.74-2.59-5.86-2.85-9.18v-1.77"/>
          <path class="cls-3" d="M258.34,264.22c.62,7.35,4.86,13.66,10.93,17.14,3.22,1.86,6.93,2.92,10.91,2.92v-21.85h.02s0-.02,0-.02h.08s0-.03,0-.03h-.08v-1.91c0-.08,0-.16-.02-.25v-17.61c0-.08.02-.16.02-.25v-1.85h.08v-.02h-.08v-.08h-.02v-2.04c-.69-7.24-4.91-13.45-10.91-16.89-2.74-1.59-5.86-2.59-9.18-2.85h-1.77"/>
          <path class="cls-3" d="M242.79,264.22c-.62,7.35-4.86,13.66-10.93,17.14-3.22,1.86-6.93,2.92-10.91,2.92v-21.85h-.02s0-.02,0-.02h-.08v-.03h.08v-1.91c0-.08,0-.16.02-.25v-17.61c0-.08-.02-.16-.02-.25v-1.85h-.08v-.02h.08v-.08h.02v-2.04c.69-7.24,4.91-13.45,10.91-16.89,2.74-1.59,5.86-2.59,9.18-2.85h1.77"/>
        </g>
        <g>
          <path class="cls-3" d="M50.96,241.46c7.35-.62,13.66-4.86,17.14-10.93,1.86-3.22,2.92-6.93,2.92-10.91h-21.85v-.02s-.02,0-.02,0v-.08s-.03,0-.03,0v.08h-1.91c-.08,0-.16,0-.25.02h-17.61c-.08,0-.16-.02-.25-.02h-1.85v-.08h-.02v.08h-.08v.02h-2.04c-7.24.69-13.45,4.91-16.89,10.91-1.59,2.74-2.59,5.86-2.85,9.18v1.77"/>
          <path class="cls-3" d="M50.96,257.01c7.35.62,13.66,4.86,17.14,10.93,1.86,3.22,2.92,6.93,2.92,10.91h-21.85v.02s-.02,0-.02,0v.08h-.03v-.08h-1.91c-.08,0-.16,0-.25-.02h-17.61c-.08,0-.16.02-.25.02h-1.85v.08h-.02v-.08h-.08v-.02h-2.04c-7.24-.69-13.45-4.91-16.89-10.91-1.59-2.74-2.59-5.86-2.85-9.18v-1.77"/>
          <path class="cls-3" d="M113.95,264.22c.62,7.35,4.86,13.66,10.93,17.14,3.22,1.86,6.93,2.92,10.91,2.92v-21.85h.02s0-.02,0-.02h.08s0-.03,0-.03h-.08v-1.91c0-.08,0-.16-.02-.25v-17.61c0-.08.02-.16.02-.25v-1.85h.08v-.02h-.08v-.08h-.02v-2.04c-.69-7.24-4.91-13.45-10.91-16.89-2.74-1.59-5.86-2.59-9.18-2.85h-1.77"/>
          <path class="cls-3" d="M98.41,264.22c-.62,7.35-4.86,13.66-10.93,17.14-3.22,1.86-6.93,2.92-10.91,2.92v-21.85h-.02s0-.02,0-.02h-.08v-.03h.08v-1.91c0-.08,0-.16.02-.25v-17.61c0-.08-.02-.16-.02-.25v-1.85h-.08v-.02h.08v-.08h.02v-2.04c.69-7.24,4.91-13.45,10.91-16.89,2.74-1.59,5.86-2.59,9.18-2.85h1.77"/>
        </g>
        <g>
          <path class="cls-3" d="M247,162.45c-.62-7.35-4.86-13.66-10.93-17.14-3.22-1.86-6.93-2.92-10.91-2.92v21.85h-.02s0,.02,0,.02h-.08s0,.03,0,.03h.08v1.91c0,.08,0,.16.02.25v17.61c0,.08-.02.16-.02.25v1.85h-.08v.02h.08v.08h.02v2.04c.69,7.24,4.91,13.45,10.91,16.89,2.74,1.59,5.86,2.59,9.18,2.85h1.77"/>
          <path class="cls-3" d="M262.55,162.45c.62-7.35,4.86-13.66,10.93-17.14,3.22-1.86,6.93-2.92,10.91-2.92v21.85h.02s0,.02,0,.02h.08v.03h-.08v1.91c0,.08,0,.16-.02.25v17.61c0,.08.02.16.02.25v1.85h.08v.02h-.08v.08h-.02v2.04c-.69,7.24-4.91,13.45-10.91,16.89-2.74,1.59-5.86,2.59-9.18,2.85h-1.77"/>
          <path class="cls-3" d="M267.54,99.24c7.35-.62,13.66-4.86,17.14-10.93,1.86-3.22,2.92-6.93,2.92-10.91h-21.85v-.02s-.02,0-.02,0v-.08s-.03,0-.03,0v.08h-1.91c-.08,0-.16,0-.25.02h-17.61c-.08,0-.16-.02-.25-.02h-1.85v-.08h-.02v.08h-.08v.02h-2.04c-7.24.69-13.45,4.91-16.89,10.91-1.59,2.74-2.59,5.86-2.85,9.18v1.77"/>
          <path class="cls-3" d="M267.54,114.78c7.35.62,13.66,4.86,17.14,10.93,1.86,3.22,2.92,6.93,2.92,10.91h-21.85v.02s-.02,0-.02,0v.08h-.03v-.08h-1.91c-.08,0-.16,0-.25-.02h-17.61c-.08,0-.16.02-.25.02h-1.85v.08h-.02v-.08h-.08v-.02h-2.04c-7.24-.69-13.45-4.91-16.89-10.91-1.59-2.74-2.59-5.86-2.85-9.18v-1.77"/>
        </g>
        <g>
          <path class="cls-3" d="M102.62,162.45c-.62-7.35-4.86-13.66-10.93-17.14-3.22-1.86-6.93-2.92-10.91-2.92v21.85h-.02s0,.02,0,.02h-.08s0,.03,0,.03h.08v1.91c0,.08,0,.16.02.25v17.61c0,.08-.02.16-.02.25v1.85h-.08v.02h.08v.08h.02v2.04c.69,7.24,4.91,13.45,10.91,16.89,2.74,1.59,5.86,2.59,9.18,2.85h1.77"/>
          <path class="cls-3" d="M118.17,162.45c.62-7.35,4.86-13.66,10.93-17.14,3.22-1.86,6.93-2.92,10.91-2.92v21.85h.02s0,.02,0,.02h.08v.03h-.08v1.91c0,.08,0,.16-.02.25v17.61c0,.08.02.16.02.25v1.85h.08v.02h-.08v.08h-.02v2.04c-.69,7.24-4.91,13.45-10.91,16.89-2.74,1.59-5.86,2.59-9.18,2.85h-1.77"/>
          <path class="cls-3" d="M123.16,99.24c7.35-.62,13.66-4.86,17.14-10.93,1.86-3.22,2.92-6.93,2.92-10.91h-21.85v-.02s-.02,0-.02,0v-.08s-.03,0-.03,0v.08h-1.91c-.08,0-.16,0-.25.02h-17.61c-.08,0-.16-.02-.25-.02h-1.85v-.08h-.02v.08h-.08v.02h-2.04c-7.24.69-13.45,4.91-16.89,10.91-1.59,2.74-2.59,5.86-2.85,9.18v1.77"/>
          <path class="cls-3" d="M123.16,114.78c7.35.62,13.66,4.86,17.14,10.93,1.86,3.22,2.92,6.93,2.92,10.91h-21.85v.02s-.02,0-.02,0v.08h-.03v-.08h-1.91c-.08,0-.16,0-.25-.02h-17.61c-.08,0-.16.02-.25.02h-1.85v.08h-.02v-.08h-.08v-.02h-2.04c-7.24-.69-13.45-4.91-16.89-10.91-1.59-2.74-2.59-5.86-2.85-9.18v-1.77"/>
          <path class="cls-3" d="M186.14,122c.62,7.35,4.86,13.66,10.93,17.14,3.22,1.86,6.93,2.92,10.91,2.92v-21.85h.02s0-.02,0-.02h.08s0-.03,0-.03h-.08v-1.91c0-.08,0-.16-.02-.25v-17.61c0-.08.02-.16.02-.25v-1.85h.08v-.02h-.08v-.08h-.02v-2.04c-.69-7.24-4.91-13.45-10.91-16.89-2.74-1.59-5.86-2.59-9.18-2.85h-1.77"/>
          <path class="cls-3" d="M170.6,122c-.62,7.35-4.86,13.66-10.93,17.14-3.22,1.86-6.93,2.92-10.91,2.92v-21.85h-.02s0-.02,0-.02h-.08v-.03h.08v-1.91c0-.08,0-.16.02-.25v-17.61c0-.08-.02-.16-.02-.25v-1.85h-.08v-.02h.08v-.08h.02v-2.04c.69-7.24,4.91-13.45,10.91-16.89,2.74-1.59,5.86-2.59,9.18-2.85h1.77"/>
          <path class="cls-3" d="M165.61,185.21c-7.35.62-13.66,4.86-17.14,10.93-1.86,3.22-2.92,6.93-2.92,10.91h21.85v.02s.02,0,.02,0v.08s.03,0,.03,0v-.08h1.91c.08,0,.16,0,.25-.02h17.61c.08,0,.16.02.25.02h1.85v.08h.02v-.08h.08v-.02h2.04c7.24-.69,13.45-4.91,16.89-10.91,1.59-2.74,2.59-5.86,2.85-9.18v-1.77"/>
          <path class="cls-3" d="M165.61,169.66c-7.35-.62-13.66-4.86-17.14-10.93-1.86-3.22-2.92-6.93-2.92-10.91h21.85v-.02s.02,0,.02,0v-.08h.03v.08h1.91c.08,0,.16,0,.25.02h17.61c.08,0,.16-.02.25-.02h1.85v-.08h.02v.08h.08v.02h2.04c7.24.69,13.45,4.91,16.89,10.91,1.59,2.74,2.59,5.86,2.85,9.18v1.77"/>
        </g>
        <g>
          <path class="cls-3" d="M41.76,122c.62,7.35,4.86,13.66,10.93,17.14,3.22,1.86,6.93,2.92,10.91,2.92v-21.85h.02s0-.02,0-.02h.08s0-.03,0-.03h-.08v-1.91c0-.08,0-.16-.02-.25v-17.61c0-.08.02-.16.02-.25v-1.85h.08v-.02h-.08v-.08h-.02v-2.04c-.69-7.24-4.91-13.45-10.91-16.89-2.74-1.59-5.86-2.59-9.18-2.85h-1.77"/>
          <path class="cls-3" d="M26.22,122c-.62,7.35-4.86,13.66-10.93,17.14-3.22,1.86-6.93,2.92-10.91,2.92v-21.85h-.02s0-.02,0-.02h-.08v-.03h.08v-1.91c0-.08,0-.16.02-.25v-17.61c0-.08-.02-.16-.02-.25v-1.85h-.08v-.02h.08v-.08h.02v-2.04c.69-7.24,4.91-13.45,10.91-16.89,2.74-1.59,5.86-2.59,9.18-2.85h1.77"/>
          <path class="cls-3" d="M21.23,185.21c-7.35.62-13.66,4.86-17.14,10.93-1.86,3.22-2.92,6.93-2.92,10.91h21.85v.02s.02,0,.02,0v.08s.03,0,.03,0v-.08h1.91c.08,0,.16,0,.25-.02h17.61c.08,0,.16.02.25.02h1.85v.08h.02v-.08h.08v-.02h2.04c7.24-.69,13.45-4.91,16.89-10.91,1.59-2.74,2.59-5.86,2.85-9.18v-1.77"/>
          <path class="cls-3" d="M21.23,169.66c-7.35-.62-13.66-4.86-17.14-10.93-1.86-3.22-2.92-6.93-2.92-10.91h21.85v-.02s.02,0,.02,0v-.08h.03v.08h1.91c.08,0,.16,0,.25.02h17.61c.08,0,.16-.02.25-.02h1.85v-.08h.02v.08h.08v.02h2.04c7.24.69,13.45,4.91,16.89,10.91,1.59,2.74,2.59,5.86,2.85,9.18v1.77"/>
        </g>
        <g>
          <path class="cls-3" d="M174.81,20.23c-.62-7.35-4.86-13.66-10.93-17.14-3.22-1.86-6.93-2.92-10.91-2.92v21.85h-.02s0,.02,0,.02h-.08s0,.03,0,.03h.08v1.91c0,.08,0,.16.02.25v17.61c0,.08-.02.16-.02.25v1.85h-.08v.02h.08v.08h.02v2.04c.69,7.24,4.91,13.45,10.91,16.89,2.74,1.59,5.86,2.59,9.18,2.85h1.77"/>
          <path class="cls-3" d="M190.36,20.23c.62-7.35,4.86-13.66,10.93-17.14,3.22-1.86,6.93-2.92,10.91-2.92v21.85h.02s0,.02,0,.02h.08v.03h-.08v1.91c0,.08,0,.16-.02.25v17.61c0,.08.02.16.02.25v1.85h.08v.02h-.08v.08h-.02v2.04c-.69,7.24-4.91,13.45-10.91,16.89-2.74,1.59-5.86,2.59-9.18,2.85h-1.77"/>
          <path class="cls-3" d="M237.8,42.99c-7.35.62-13.66,4.86-17.14,10.93-1.86,3.22-2.92,6.93-2.92,10.91h21.85v.02s.02,0,.02,0v.08s.03,0,.03,0v-.08h1.91c.08,0,.16,0,.25-.02h17.61c.08,0,.16.02.25.02h1.85v.08h.02v-.08h.08v-.02h2.04c7.24-.69,13.45-4.91,16.89-10.91,1.59-2.74,2.59-5.86,2.85-9.18v-1.77"/>
          <path class="cls-3" d="M237.8,27.44c-7.35-.62-13.66-4.86-17.14-10.93-1.86-3.22-2.92-6.93-2.92-10.91h21.85v-.02s.02,0,.02,0v-.08h.03v.08h1.91c.08,0,.16,0,.25.02h17.61c.08,0,.16-.02.25-.02h1.85v-.08h.02v.08h.08v.02h2.04c7.24.69,13.45,4.91,16.89,10.91,1.59,2.74,2.59,5.86,2.85,9.18v1.77"/>
        </g>
        <g>
          <path class="cls-3" d="M30.43,20.23c-.62-7.35-4.86-13.66-10.93-17.14C16.29,1.23,12.57.17,8.59.17v21.85h-.02s0,.02,0,.02h-.08s0,.03,0,.03h.08v1.91c0,.08,0,.16.02.25v17.61c0,.08-.02.16-.02.25v1.85h-.08v.02h.08v.08h.02v2.04c.69,7.24,4.91,13.45,10.91,16.89,2.74,1.59,5.86,2.59,9.18,2.85h1.77"/>
          <path class="cls-3" d="M45.97,20.23c.62-7.35,4.86-13.66,10.93-17.14,3.22-1.86,6.93-2.92,10.91-2.92v21.85h.02s0,.02,0,.02h.08v.03h-.08v1.91c0,.08,0,.16-.02.25v17.61c0,.08.02.16.02.25v1.85h.08v.02h-.08v.08h-.02v2.04c-.69,7.24-4.91,13.45-10.91,16.89-2.74,1.59-5.86,2.59-9.18,2.85h-1.77"/>
          <path class="cls-3" d="M93.42,42.99c-7.35.62-13.66,4.86-17.14,10.93-1.86,3.22-2.92,6.93-2.92,10.91h21.85v.02s.02,0,.02,0v.08s.03,0,.03,0v-.08h1.91c.08,0,.16,0,.25-.02h17.61c.08,0,.16.02.25.02h1.85v.08h.02v-.08h.08v-.02h2.04c7.24-.69,13.45-4.91,16.89-10.91,1.59-2.74,2.59-5.86,2.85-9.18v-1.77"/>
          <path class="cls-3" d="M93.42,27.44c-7.35-.62-13.66-4.86-17.14-10.93-1.86-3.22-2.92-6.93-2.92-10.91h21.85v-.02s.02,0,.02,0v-.08h.03v.08h1.91c.08,0,.16,0,.25.02h17.61c.08,0,.16-.02.25-.02h1.85v-.08h.02v.08h.08v.02h2.04c7.24.69,13.45,4.91,16.89,10.91,1.59,2.74,2.59,5.86,2.85,9.18v1.77"/>
        </g>
      </g>
    </pattern>
  </defs>
  <g id="_Слой_1-2" data-name="Слой 1">
    <path class="cls-2" d="M0,0h2089.42c4.1,0,7.42,3.33,7.42,7.42v1349.02H0V0h0Z"/>
  </g>
</svg>