<?xml version="1.0" encoding="UTF-8"?>
<svg id="_Слой_2" xmlns="http://www.w3.org/2000/svg" version="1.1" viewBox="0 0 826.1 139.8">
  <!-- Generator: Adobe Illustrator 29.2.1, SVG Export Plug-In . SVG Version: 2.1.0 Build 116)  -->
  <defs>
    <style>
      .st0 {
        fill: #fff;
      }

      .st1 {
        fill: #e30613;
      }
    </style>
  </defs>
  <g id="_Слой_1-2">
    <g>
      <path class="st1" d="M142.7,139.8h-61.8C36.2,139.8,0,103.6,0,58.9v-2.5h61.8c44.7,0,80.9,36.2,80.9,80.9v2.5h0Z"/>
      <path class="st1" d="M97.9,47.2H.2v-1.4C.2,21,20.3.9,45.1.9h97.7v1.4c0,24.8-20.1,44.9-44.9,44.9Z"/>
    </g>
    <path class="st0" d="M156,139.3l49.1-110.2C213,11.4,230.5,0,249.9,0h0l62.3,139.3h-46.1l-48.7-117.5,22.7-5.5-51.1,123h-33,0Z"/>
    <path class="st0" d="M669.9,139.3l49.1-110.2C726.9,11.4,744.5,0,763.9,0h0l62.3,139.3h-46.1l-48.7-117.5,22.7-5.5-51.1,123h-33,0Z"/>
    <path class="st0" d="M326.7,139.3V26.7C326.7,11.9,338.7,0,353.4,0h0l59.3,98.3h-14.1l44.8-75.5C451.7,8.6,466.9,0,483.3,0h0l.4,139.3h-30.2l-.2-92.9h5.6l-46.6,78.2h0c-9,0-17.4-4.7-22.1-12.4l-40-65.8h6.8v92.9h-30.2,0Z"/>
    <path class="st0" d="M504,139.3V26.7C504,11.9,516,0,530.7,0h0l59.3,98.3h-14.1l44.8-75.5C629,8.6,644.2,0,660.6,0h0l.4,139.3h-30.2l-.2-92.9h5.6l-46.6,78.2h0c-9,0-17.4-4.7-22.1-12.4l-40-65.8h6.8v92.9h-30.2Z"/>
  </g>
</svg>